<svg width="33" height="33" viewBox="0 0 33 33" fill="none" xmlns="http://www.w3.org/2000/svg">
<path d="M16.3662 8.19564C16.3662 5.52897 18.3662 2.8623 21.0329 2.8623C21.0329 5.52897 19.0329 8.19564 16.3662 8.19564Z" stroke="#F8EAEA" stroke-width="2" stroke-linejoin="round"/>
<path d="M17.0316 11.3183C16.345 11.3183 15.8138 11.1002 15.2201 10.8565C14.4684 10.5479 13.6166 10.1982 12.2227 10.1982C9.72804 10.1982 5.69824 12.1975 5.69824 17.5309C5.69824 23.7337 9.83786 30.1982 12.5045 30.1982C13.3973 30.1982 14.2016 29.8477 14.9702 29.5128C15.6736 29.2061 16.3473 28.9125 17.0316 28.9125C17.7158 28.9125 18.3896 29.2061 19.0929 29.5128C19.8616 29.8477 20.6658 30.1982 21.5586 30.1982C23.4154 30.1982 25.6413 27.0638 27.0316 23.066C24.8706 22.1585 23.4822 20.0222 23.4822 17.5316C23.4822 15.3596 24.6364 13.918 26.3649 12.8649C25.0316 10.8649 23.0494 10.1982 21.6245 10.1982C20.2306 10.1982 19.3788 10.5479 18.627 10.8565C18.0334 11.1002 17.7181 11.3183 17.0316 11.3183Z" stroke="#F8EAEA" stroke-width="2" stroke-linejoin="round"/>
</svg>
