<svg width="33" height="33" viewBox="0 0 33 33" fill="none" xmlns="http://www.w3.org/2000/svg">
<path d="M10.5996 7.12354C11.7417 6.8242 12.9387 7.08886 14.3242 7.6626C15.7105 8.23667 17.4236 9.182 19.6338 10.3999C21.6639 11.5186 23.2447 12.3883 24.3594 13.1792C25.4666 13.9648 26.2662 14.7743 26.5254 15.8325L26.5771 16.0776C26.6818 16.6523 26.6649 17.241 26.5254 17.811C26.2662 18.8691 25.4665 19.6788 24.3594 20.4644C23.2448 21.2552 21.6639 22.125 19.6338 23.2437C17.4236 24.4615 15.7105 25.4069 14.3242 25.981C12.9387 26.5547 11.7417 26.8193 10.5996 26.52C9.89025 26.3341 9.23094 26.0054 8.67285 25.5542C7.75237 24.81 7.36407 23.7072 7.18066 22.3276C6.99827 20.9553 7 19.1401 7 16.8218C7 14.5034 6.99825 12.6882 7.18066 11.3159C7.36408 9.93629 7.75232 8.83361 8.67285 8.08936C9.23105 7.63807 9.89033 7.30947 10.5996 7.12354ZM10.7051 24.9839C10.7954 25.015 10.8869 25.0443 10.9805 25.0688C11.6414 25.242 12.4592 25.1297 13.75 24.5952C15.0407 24.0607 16.6681 23.1656 18.9102 21.9302C19.7906 21.445 20.5649 21.0142 21.2451 20.6265L18.335 17.9399L10.7051 24.9839ZM9.29297 9.59229C8.99715 9.98974 8.7922 10.579 8.66797 11.5132C8.5018 12.7632 8.5 14.4594 8.5 16.8218C8.5 19.1843 8.50178 20.8803 8.66797 22.1304C8.80438 23.1564 9.03945 23.7656 9.38379 24.1626L17.2295 16.9194L9.29297 9.59229ZM19.4414 16.9194L22.5947 19.8306C22.9256 19.6249 23.2244 19.431 23.4912 19.2417C24.5267 18.507 24.9429 17.9667 25.0684 17.4546C25.1705 17.0375 25.1705 16.606 25.0684 16.189C24.9428 15.6769 24.5264 15.1373 23.4912 14.4028C23.2585 14.2377 23.0019 14.0683 22.7207 13.8911L19.4414 16.9194ZM13.75 9.04834C12.4593 8.51391 11.6413 8.4016 10.9805 8.57471C10.8341 8.61307 10.6917 8.66007 10.5537 8.71436L18.3359 15.8989L21.3779 13.0903C20.6667 12.6826 19.8479 12.2301 18.9102 11.7134H18.9092C16.6674 10.4781 15.0406 9.58277 13.75 9.04834Z" fill="#F8EAEA"/>
</svg>
