<svg width="65" height="66" viewBox="0 0 65 66" fill="none" xmlns="http://www.w3.org/2000/svg">
<path fill-rule="evenodd" clip-rule="evenodd" d="M33.1682 46.8554L39.7087 62.1822C40.0651 63.0209 39.4507 63.9487 38.5413 63.9487H26.4617C25.5524 63.9487 24.9379 63.0178 25.2943 62.1791L31.8349 46.8523C32.1636 46.0843 32.1636 45.2179 31.8349 44.4499L25.2912 29.12C24.9349 28.2813 25.5493 27.3535 26.4586 27.3535H38.5413C39.4507 27.3535 40.0651 28.2844 39.7087 29.12L33.1682 44.4499C32.8425 45.2179 32.8425 46.0843 33.1682 46.8492V46.8554Z" fill="#08783C"/>
<path fill-rule="evenodd" clip-rule="evenodd" d="M37.7367 18.6291C37.7367 21.5507 35.3927 23.9193 32.4987 23.9193C29.6048 23.9193 27.2607 21.5507 27.2607 18.6291C27.2607 15.7075 29.6048 13.3389 32.4987 13.3389C35.3927 13.3389 37.7367 15.7075 37.7367 18.6291Z" fill="#08783C"/>
<path d="M50.2805 35.5683L56.821 50.8951C57.1774 51.7338 56.563 52.6615 55.6536 52.6615H43.574C42.6647 52.6615 42.0502 51.7307 42.4066 50.892L48.9472 35.5652C49.2759 34.7971 49.2759 33.9308 48.9472 33.1628L42.4035 17.8329C42.0472 16.9942 42.6616 16.0664 43.5709 16.0664H55.6536C56.563 16.0664 57.1774 16.9973 56.821 17.8329L50.2805 33.1628C49.9548 33.9308 49.9548 34.7971 50.2805 35.5621V35.5683Z" fill="#209BD6"/>
<path d="M54.849 7.34196C54.849 10.2635 52.505 12.6322 49.611 12.6322C46.7171 12.6322 44.373 10.2635 44.373 7.34196C44.373 4.42037 46.7171 2.05176 49.611 2.05176C52.505 2.05176 54.849 4.42037 54.849 7.34196Z" fill="#209BD6"/>
<path d="M16.0568 35.5691L22.5974 50.8959C22.9537 51.7346 22.3393 52.6624 21.43 52.6624H9.34731C8.43796 52.6624 7.82354 51.7315 8.1799 50.8928L14.7205 35.566C15.0492 34.798 15.0492 33.9316 14.7205 33.1636L8.1799 17.8368C7.82354 16.9981 8.43796 16.0703 9.34731 16.0703H21.43C22.3393 16.0703 22.9537 17.0012 22.5974 17.8368L16.0568 33.1667C15.7312 33.9347 15.7312 34.8011 16.0568 35.566V35.5691Z" fill="#209BD6"/>
<path d="M20.6254 7.34196C20.6254 10.2635 18.2813 12.6322 15.3874 12.6322C12.4934 12.6322 10.1494 10.2635 10.1494 7.34196C10.1494 4.42037 12.4965 2.05176 15.3874 2.05176C18.2783 2.05176 20.6254 4.42037 20.6254 7.34196Z" fill="#209BD6"/>
</svg>
