<svg width="65" height="66" viewBox="0 0 65 66" fill="none" xmlns="http://www.w3.org/2000/svg">
<path fill-rule="evenodd" clip-rule="evenodd" d="M33.9465 42.6897C33.5533 41.7681 33.5533 40.7297 33.9465 39.8081L41.7958 21.406C42.2259 20.4015 41.4855 19.2832 40.3949 19.2832H25.8945C24.8008 19.2832 24.0635 20.3984 24.4936 21.406L32.346 39.8081C32.7392 40.7297 32.7392 41.7712 32.346 42.6897L26.429 56.5511C27.0005 56.5389 27.575 56.5143 28.1525 56.459C31.6578 56.1364 35.1815 55.1472 38.5854 53.5589L33.9465 42.6866V42.6897Z" fill="#08783C"/>
<path fill-rule="evenodd" clip-rule="evenodd" d="M41.3009 59.9307C40.7632 60.2256 40.2195 60.5113 39.6665 60.7878C37.6573 61.8016 35.513 62.6157 33.3164 63.2117H40.3915C41.4852 63.2117 42.2225 62.0965 41.7924 61.0889L41.2978 59.9337L41.3009 59.9307Z" fill="#08783C"/>
<path d="M57.1074 16.748C53.003 11.722 46.3795 9.89411 40.1155 10.1921C40.0171 10.6929 39.8697 11.1783 39.6731 11.636C45.7006 11.1537 51.5806 12.8249 55.6942 17.8786C59.6572 23.0151 59.4422 30.1118 57.0767 35.9058C54.7142 41.8104 50.3856 46.821 45.2889 50.5445C40.2875 54.1818 34.3368 56.7133 28.2263 57.2786C22.5767 57.7916 16.5983 56.4921 12.9886 51.9822C9.41879 47.5184 9.24368 41.3127 10.7337 35.786C12.3803 29.7216 16.0638 24.118 20.844 19.9307C23.1328 17.8693 25.9253 16.0261 28.9606 14.5975C28.4445 14.2166 27.9836 13.7681 27.5873 13.2673C24.675 14.5484 21.907 16.1705 19.3356 18.0414C13.6952 22.198 8.789 27.5158 5.95958 34.0963C2.84752 41.0147 2.83523 49.8839 7.86429 56.0743C15.3941 65.4934 29.4429 65.0326 39.3075 60.0527C48.8004 55.3462 56.6097 47.0269 59.8846 36.895C62.0566 30.2715 61.7616 22.2778 57.1104 16.748H57.1074Z" fill="#209BD6"/>
<path fill-rule="evenodd" clip-rule="evenodd" d="M39.4305 8.80711C39.4305 12.3155 36.6164 15.1572 33.1449 15.1572C29.6734 15.1572 26.8594 12.3124 26.8594 8.80711C26.8594 5.30182 29.6734 2.45703 33.1449 2.45703C36.6164 2.45703 39.4305 5.29875 39.4305 8.80711Z" fill="#08783C"/>
</svg>
