<svg width="65" height="66" viewBox="0 0 65 66" fill="none" xmlns="http://www.w3.org/2000/svg">
<path d="M32.4994 53.2488C17.9561 53.2488 6.125 41.4177 6.125 26.8744C6.125 12.3311 17.9561 0.5 32.4994 0.5C47.0427 0.5 58.8738 12.3311 58.8738 26.8744C58.8738 41.4177 47.0427 53.2488 32.4994 53.2488ZM32.4994 3.9999C19.8868 3.9999 9.6249 14.2618 9.6249 26.8744C9.6249 39.487 19.8868 49.7489 32.4994 49.7489C45.112 49.7489 55.3739 39.487 55.3739 26.8744C55.3739 14.2618 45.112 3.9999 32.4994 3.9999Z" fill="#209BD6"/>
<path fill-rule="evenodd" clip-rule="evenodd" d="M33.2628 46.0518L40.7043 63.4896C41.1121 64.441 40.4108 65.5006 39.376 65.5006H25.6297C24.5949 65.5006 23.8936 64.441 24.3014 63.4896L31.746 46.0518C32.1198 45.1776 32.1198 44.1922 31.746 43.318L24.3014 25.8772C23.8936 24.9258 24.5949 23.8662 25.6297 23.8662H39.376C40.4108 23.8662 41.1121 24.9258 40.7043 25.8772L33.2628 43.3211C32.8921 44.1922 32.8921 45.1807 33.2628 46.0518Z" fill="#08783C"/>
<path fill-rule="evenodd" clip-rule="evenodd" d="M38.4586 13.9346C38.4586 17.2585 35.7897 19.9552 32.4998 19.9552C29.21 19.9552 26.541 17.2585 26.541 13.9346C26.541 10.6108 29.21 7.91406 32.4998 7.91406C35.7897 7.91406 38.4586 10.6077 38.4586 13.9346Z" fill="#08783C"/>
</svg>
