<svg width="65" height="66" viewBox="0 0 65 66" fill="none" xmlns="http://www.w3.org/2000/svg">
<mask id="mask0_2184_554" style="mask-type:luminance" maskUnits="userSpaceOnUse" x="0" y="0" width="65" height="66">
<path d="M65 0.5H0V65.5H65V0.5Z" fill="white"/>
</mask>
<g mask="url(#mask0_2184_554)">
<path d="M33.2382 16.5686L36.3748 23.9154C36.5475 24.3172 36.2524 24.7631 35.816 24.7631H30.0231C29.5866 24.7631 29.2915 24.3172 29.4642 23.9154L32.6008 16.5686C32.7578 16.2013 32.7578 15.7837 32.6008 15.4163L29.4642 8.06645C29.2915 7.66458 29.5866 7.21875 30.0231 7.21875H35.816C36.2524 7.21875 36.5475 7.66458 36.3748 8.06645L33.2382 15.4163C33.0812 15.7837 33.0812 16.2013 33.2382 16.5686Z" fill="#08783C"/>
<path d="M35.426 3.03683C35.426 4.43711 34.302 5.57366 32.9142 5.57366C31.5264 5.57366 30.4023 4.43711 30.4023 3.03683C30.4023 1.63655 31.5264 0.5 32.9142 0.5C34.302 0.5 35.426 1.63655 35.426 3.03683Z" fill="#08783C"/>
<path d="M44.6486 21.9123L41.6659 29.3219C41.5025 29.727 40.9783 29.8337 40.6705 29.526L36.5762 25.4288C36.2686 25.1211 36.3753 24.5968 36.7803 24.4335L44.1965 21.4603C44.567 21.3127 44.8621 21.0176 45.0129 20.6471L47.9956 13.2344C48.159 12.8294 48.6833 12.7227 48.991 13.0303L53.0853 17.1276C53.393 17.4352 53.2862 17.9596 52.8812 18.1228L45.465 21.0992C45.0945 21.2468 44.7994 21.5419 44.6517 21.9123H44.6486Z" fill="#08783C"/>
<path d="M55.773 13.897C54.7809 14.886 53.1827 14.8955 52.2031 13.9127C51.2235 12.93 51.2329 11.3351 52.2251 10.343C53.2173 9.354 54.8154 9.34454 55.795 10.3273C56.7747 11.3099 56.7652 12.9049 55.773 13.897Z" fill="#08783C"/>
<path d="M48.9316 33.7585L41.5782 36.8825C41.1763 37.0521 40.7305 36.7569 40.7305 36.3205L40.7367 30.5279C40.7367 30.0915 41.1826 29.7963 41.5844 29.969L48.9284 33.115C49.2958 33.2719 49.7134 33.2719 50.0808 33.115L57.4342 29.9879C57.836 29.8183 58.2819 30.1134 58.2819 30.5498L58.2756 36.3425C58.2756 36.7789 57.8297 37.074 57.4278 36.9013L50.0808 33.7554C49.7134 33.5984 49.2989 33.5984 48.9284 33.7554L48.9316 33.7585Z" fill="#08783C"/>
<path d="M62.4596 35.9687C61.0592 35.9687 59.9258 34.8416 59.9258 33.4539C59.9258 32.0662 61.0655 30.9453 62.4658 30.9453C63.8662 30.9453 64.9997 32.0724 64.9997 33.4602C64.9997 34.8479 63.8599 35.9687 62.4596 35.9687Z" fill="#08783C"/>
<path d="M43.5711 45.1614L36.1644 42.1661C35.7593 42.0029 35.6526 41.4786 35.9634 41.1709L40.0671 37.083C40.378 36.7754 40.8992 36.8821 41.0624 37.2872L44.0264 44.7061C44.174 45.0766 44.4691 45.3717 44.8396 45.5224L52.2495 48.5177C52.6546 48.6809 52.7613 49.2052 52.4505 49.5129L48.3468 53.6007C48.0359 53.9084 47.5147 53.8017 47.3515 53.3966L44.3875 45.9777C44.2399 45.6072 43.9448 45.312 43.5743 45.1614H43.5711Z" fill="#08783C"/>
<path d="M51.5707 56.2947C50.5817 55.3026 50.5785 53.7045 51.5581 52.7249C52.5409 51.7454 54.1391 51.7579 55.1281 52.75C56.1171 53.7422 56.1202 55.3402 55.1406 56.3198C54.1579 57.2994 52.5597 57.2869 51.5707 56.2947Z" fill="#08783C"/>
<path d="M31.7181 49.4283L28.6034 42.0721C28.4338 41.6702 28.729 41.2244 29.1654 41.2276L34.9583 41.2433C35.3948 41.2433 35.6899 41.6922 35.5172 42.091L32.3617 49.4315C32.2047 49.7988 32.2016 50.2132 32.3617 50.5837L35.4795 57.943C35.6491 58.3449 35.3539 58.7907 34.9175 58.7876L29.1246 58.7719C28.6882 58.7719 28.393 58.3229 28.5657 57.9242L31.7212 50.5837C31.8782 50.2163 31.8813 49.8019 31.7212 49.4315L31.7181 49.4283Z" fill="#08783C"/>
<path d="M29.4922 62.9573C29.4954 61.5571 30.6225 60.4236 32.0103 60.4268C33.3981 60.43 34.5191 61.5696 34.5159 62.9699C34.5127 64.3702 33.3856 65.5036 31.9978 65.5005C30.61 65.4973 29.4891 64.3576 29.4922 62.9573Z" fill="#08783C"/>
<path d="M20.3239 44.0565L23.3287 36.6533C23.492 36.2482 24.0163 36.1446 24.324 36.4523L28.4057 40.5621C28.7134 40.8729 28.6036 41.3941 28.1985 41.5574L20.776 44.5118C20.4055 44.6593 20.1104 44.9513 19.9598 45.3218L16.9549 52.7282C16.7917 53.1332 16.2673 53.2368 15.9596 52.9291L11.8779 48.8194C11.5702 48.5085 11.6801 47.9874 12.0851 47.824L19.5108 44.8697C19.8813 44.7221 20.1764 44.4301 20.327 44.0596L20.3239 44.0565Z" fill="#08783C"/>
<path d="M9.17705 52.0402C10.1724 51.0543 11.7706 51.0512 12.747 52.0339C13.7235 53.0166 13.7109 54.6147 12.7156 55.6037C11.7204 56.5895 10.1222 56.5927 9.1457 55.6099C8.16921 54.6272 8.18178 53.0292 9.17705 52.0402Z" fill="#08783C"/>
<path d="M16.0718 32.1976L23.4316 29.0925C23.8334 28.923 24.2793 29.2181 24.2762 29.6545L24.2542 35.4472C24.2542 35.8836 23.8052 36.1756 23.4033 36.0029L16.0687 32.8381C15.7013 32.6811 15.2869 32.678 14.9164 32.835L7.55361 35.9432C7.15171 36.1127 6.70586 35.8176 6.709 35.3812L6.73098 29.5886C6.73098 29.1521 7.17997 28.8602 7.58186 29.0328L14.9195 32.1976C15.2869 32.3546 15.7013 32.3578 16.0718 32.2008V32.1976Z" fill="#08783C"/>
<path d="M2.5464 29.9532C3.94674 29.9594 5.08021 31.0865 5.07393 32.4742C5.06765 33.862 3.92791 34.9797 2.52756 34.9735C1.12722 34.9671 -0.00625362 33.84 2.59669e-05 32.4523C0.00630555 31.0646 1.14605 29.9469 2.5464 29.9532Z" fill="#08783C"/>
<path d="M21.4609 20.8076L28.8615 23.8216C29.2665 23.9848 29.3701 24.5092 29.0593 24.8168L24.943 28.8921C24.6322 29.1998 24.111 29.0899 23.9477 28.6849L21.0057 21.2565C20.8582 20.8861 20.5662 20.5877 20.1957 20.4371L12.7951 17.4231C12.3901 17.2597 12.2865 16.7355 12.5973 16.4277L16.7136 12.3525C17.0245 12.0448 17.5456 12.1547 17.709 12.5597L20.654 19.9881C20.8016 20.3586 21.0936 20.6537 21.4641 20.8044L21.4609 20.8076Z" fill="#08783C"/>
<path d="M13.491 9.6523C14.4769 10.6475 14.4769 12.2456 13.491 13.222C12.5052 14.1984 10.907 14.1828 9.92104 13.1875C8.93518 12.1922 8.93518 10.5941 9.92104 9.61775C10.907 8.64131 12.5052 8.65701 13.491 9.6523Z" fill="#08783C"/>
</g>
</svg>
