<svg width="65" height="66" viewBox="0 0 65 66" fill="none" xmlns="http://www.w3.org/2000/svg">
<path fill-rule="evenodd" clip-rule="evenodd" d="M41.7393 2.4082V9.84889H49.183L41.7393 2.4082Z" fill="#08783C"/>
<path d="M48.3293 12.5489H43.1527C40.8824 12.5489 39.0392 10.7087 39.0392 8.4353V3.26491C39.0392 1.74114 37.8042 0.5 36.2773 0.5H16.6741C15.1472 0.5 13.9092 1.73807 13.9092 3.26184V47.3222C13.9092 48.8491 15.1472 50.0841 16.671 50.0841H24.8674L26.1024 47.1932H16.8V3.39087H36.1483V8.4353C36.1483 12.297 39.2911 15.4397 43.1527 15.4397H48.2002V47.1963H32.2528L33.4878 50.0872H48.3293C49.8561 50.0872 51.0911 48.8491 51.0911 47.3253V15.3107C51.0911 13.7839 49.853 12.5489 48.3293 12.5489Z" fill="#209BD6"/>
<path d="M29.9337 46.1577L37.3344 63.4999C37.7399 64.4461 37.0426 65.4998 36.0134 65.4998H22.3425C21.3133 65.4998 20.6159 64.4461 21.0214 63.4999L28.4253 46.1577C28.797 45.2883 28.797 44.3083 28.4253 43.4389L21.0214 26.0937C20.6159 25.1475 21.3133 24.0938 22.3425 24.0938H36.0134C37.0426 24.0938 37.7399 25.1475 37.3344 26.0937L29.9337 43.442C29.565 44.3083 29.565 45.2914 29.9337 46.1577Z" fill="#08783C"/>
<path d="M35.1032 14.2171C35.1032 17.5227 32.4489 20.2046 29.1771 20.2046C25.9053 20.2046 23.251 17.5227 23.251 14.2171C23.251 10.9115 25.9053 8.22949 29.1771 8.22949C32.4489 8.22949 35.1032 10.9084 35.1032 14.2171Z" fill="#08783C"/>
</svg>
