<svg width="65" height="66" viewBox="0 0 65 66" fill="none" xmlns="http://www.w3.org/2000/svg">
<path fill-rule="evenodd" clip-rule="evenodd" d="M25.8118 7.67271C25.8921 7.58621 26.0095 7.60475 26.1083 7.63873C25.9662 8.49131 25.4164 9.1987 24.8974 9.86594C23.7328 11.4166 22.5188 12.9272 21.3759 14.4934C20.5696 15.5838 19.7819 16.6835 18.9973 17.7863C18.7069 18.191 18.4598 18.6265 18.1169 18.9879C17.8791 19.2381 17.6597 19.5038 17.4373 19.7664C17.0265 19.2258 16.5384 18.7439 16.1801 18.1662C15.2626 16.77 14.4101 15.3305 13.6409 13.8477C13.4802 13.5296 13.298 13.2083 13.2764 12.8438C13.7305 13.1589 14.1382 13.5296 14.5614 13.8848C15.5283 14.7096 16.5137 15.5066 17.5084 16.2943C19.8715 13.684 22.1358 10.9749 24.7306 8.58707C25.0797 8.2689 25.438 7.96308 25.8149 7.6758L25.8118 7.67271Z" fill="#08783C"/>
<path d="M10.3234 8.79688C14.7902 8.80614 19.257 8.79687 23.7268 8.80305C23.3314 9.25097 22.8928 9.65872 22.4912 10.1005C22.346 10.2765 22.0927 10.224 21.8919 10.2364C18.5156 10.2333 15.1362 10.2364 11.7598 10.2333C11.7691 13.7239 11.7598 17.2146 11.7629 20.7052C15.6335 20.699 19.5041 20.7052 23.3747 20.7052C23.387 18.1413 23.3809 15.5805 23.3809 13.0165C23.3932 12.8961 23.3592 12.7571 23.4241 12.6489C23.838 12.0311 24.3385 11.4782 24.7895 10.8882C24.8049 14.6383 24.7895 18.3853 24.7987 22.1354C19.9798 22.1354 15.1578 22.1323 10.3388 22.1354C10.311 17.6903 10.345 13.242 10.3203 8.79688H10.3234Z" fill="#209BD6"/>
<path fill-rule="evenodd" clip-rule="evenodd" d="M25.6202 29.1296C25.7499 29.0246 25.8889 28.9227 26.0588 28.9072C26.0959 29.0462 26.0866 29.1945 26.0279 29.3304C25.7499 30.0934 25.2371 30.7359 24.7398 31.3661C23.8347 32.5832 22.8771 33.7632 21.972 34.9803C21.0082 36.2592 20.0784 37.5597 19.1455 38.8602C18.7779 39.3668 18.4597 39.9166 18.0211 40.3707C17.811 40.5931 17.6257 40.8341 17.4218 41.0596C17.082 40.5684 16.6372 40.1576 16.3159 39.6541C15.5035 38.4432 14.7652 37.189 14.0547 35.9163C13.7458 35.3356 13.4153 34.7579 13.2207 34.1277C13.4925 34.1957 13.6686 34.4397 13.891 34.5942C15.0772 35.6105 16.2789 36.6144 17.5083 37.5813C19.5718 35.2954 21.5704 32.9477 23.7729 30.7946C24.3599 30.2108 24.9715 29.6486 25.6202 29.1296Z" fill="#08783C"/>
<path d="M10.3263 30.0654C14.7993 30.0778 19.2692 30.0531 23.7421 30.0778C23.4332 30.4485 23.0718 30.7666 22.7505 31.125C22.5961 31.2455 22.4849 31.4679 22.2779 31.4957C18.7749 31.508 15.2688 31.4864 11.7627 31.508C11.7627 34.9987 11.7597 38.4862 11.7627 41.9768C15.6364 41.9861 19.507 41.983 23.3807 41.9768C23.3869 39.3233 23.3622 36.6668 23.3961 34.0132C23.7946 33.3584 24.326 32.7992 24.7831 32.1845C24.8171 35.9223 24.7862 39.6631 24.7986 43.4009C19.9766 43.4194 15.1545 43.4102 10.3325 43.4071C10.3202 38.9588 10.3387 34.5106 10.3232 30.0654H10.3263Z" fill="#209BD6"/>
<path fill-rule="evenodd" clip-rule="evenodd" d="M23.6497 52.2259C24.3849 51.4969 25.1356 50.7741 25.9851 50.1748C26.016 50.2088 26.0808 50.2798 26.1117 50.3138C26.0747 50.6814 25.8801 51.0089 25.704 51.3301C25.426 51.8522 25.0244 52.2877 24.6815 52.7634C23.7146 54.0639 22.6829 55.3119 21.7222 56.6155C20.6565 58.055 19.5969 59.4976 18.5806 60.9711C18.2532 61.4715 17.8022 61.87 17.4376 62.3395C17.0917 61.8669 16.6716 61.4561 16.3472 60.968C15.4637 59.6459 14.6451 58.2805 13.8914 56.8781C13.6597 56.3993 13.3416 55.9359 13.2705 55.3984C13.7771 55.7382 14.2219 56.1614 14.6915 56.5506C15.6151 57.3383 16.5573 58.1075 17.5118 58.8582C19.5444 56.634 21.4998 54.3327 23.6528 52.2198L23.6497 52.2259Z" fill="#08783C"/>
<path d="M10.3232 51.3616C12.7914 51.3524 15.2657 51.374 17.737 51.3555C19.7356 51.3647 21.7373 51.3647 23.7359 51.3616C23.6618 51.5192 23.5228 51.6242 23.4116 51.7478C23.0841 52.0721 22.7691 52.4119 22.4447 52.7425C21.1967 52.8011 19.9457 52.7517 18.6977 52.7672C16.3871 52.7703 14.0764 52.7672 11.7689 52.7672C11.7689 56.2702 11.7689 59.7732 11.7689 63.2761C15.6426 63.2731 19.5132 63.2761 23.3869 63.2761C23.4023 60.6257 23.3653 57.9753 23.4085 55.328C23.8255 54.6947 24.3167 54.1078 24.8017 53.5271C24.8109 57.2556 24.8017 60.9841 24.8078 64.7126C19.9889 64.7064 15.1669 64.7095 10.348 64.7126C10.3294 60.2643 10.3572 55.813 10.3325 51.3647L10.3232 51.3616Z" fill="#209BD6"/>
<path fill-rule="evenodd" clip-rule="evenodd" d="M46.3885 43.3755L54.5498 62.503C54.9947 63.5471 54.2286 64.7085 53.0918 64.7085H38.0141C36.8773 64.7085 36.1112 63.5471 36.5561 62.503L44.7205 43.3755C45.1282 42.4179 45.1282 41.3367 44.7205 40.3791L36.5561 21.2486C36.1112 20.2045 36.8773 19.043 38.0141 19.043H53.0918C54.2286 19.043 54.9947 20.2045 54.5498 21.2486L46.3885 40.3791C45.9808 41.3367 45.9808 42.4179 46.3885 43.3755Z" fill="#08783C"/>
<path fill-rule="evenodd" clip-rule="evenodd" d="M52.0885 8.15129C52.0885 11.7995 49.1632 14.7557 45.5521 14.7557C41.941 14.7557 39.0156 11.7995 39.0156 8.15129C39.0156 4.50311 41.9441 1.54688 45.5521 1.54688C49.1601 1.54688 52.0885 4.50311 52.0885 8.1482V8.15129Z" fill="#08783C"/>
</svg>
