<svg width="50" height="51" viewBox="0 0 50 51" fill="none" xmlns="http://www.w3.org/2000/svg">
<path d="M47.1272 19.9739H45.9145C45.4186 18.0938 44.6737 16.2979 43.6927 14.6177L44.55 13.7586C45.0921 13.2187 45.3909 12.4984 45.3916 11.7307C45.3924 10.9616 45.0939 10.2393 44.5514 9.69658L40.8006 5.9458C40.26 5.40527 39.539 5.10752 38.7702 5.10752C38.0015 5.10752 37.2804 5.40527 36.7398 5.9458L35.8812 6.80449C34.1948 5.82158 32.3987 5.07725 30.5233 4.58467V3.37002C30.5233 1.7875 29.2358 0.5 27.6533 0.5H22.3467C20.7626 0.5 19.4739 1.7875 19.4739 3.37002V4.58477C17.5968 5.07832 15.801 5.82256 14.1179 6.80459L13.2573 5.9458C12.1398 4.82832 10.3187 4.82793 9.19658 5.9458L5.44463 9.69805C4.32783 10.819 4.32842 12.64 5.4459 13.7574L6.30684 14.6184C5.32314 16.3025 4.57822 18.098 4.08486 19.9739H2.87002C1.2875 19.9739 0 21.2626 0 22.8467V28.1533C0 29.7358 1.2875 31.0233 2.87002 31.0233H4.08467C4.57783 32.9001 5.32275 34.6963 6.30645 36.381L5.4458 37.2398C4.90527 37.7804 4.60752 38.5015 4.60752 39.2702C4.60752 40.039 4.90527 40.76 5.4458 41.3006L9.19658 45.0514C9.73857 45.5934 10.4599 45.8917 11.2279 45.8916H11.2307C11.9983 45.8909 12.7186 45.5921 13.2566 45.052L14.1176 44.1926C15.7979 45.1736 17.5937 45.9185 19.4738 46.4144V47.6271C19.4738 49.2112 20.7625 50.4999 22.3466 50.4999H27.6532C29.2357 50.4999 30.5232 49.2112 30.5232 47.6271V46.4146C32.4044 45.9189 34.2009 45.1741 35.8815 44.193L36.7385 45.0499C37.2791 45.5927 38.0007 45.8915 38.7701 45.8915C39.5396 45.8915 40.2611 45.5926 40.8005 45.0513L44.55 41.3017C45.0928 40.761 45.3916 40.0395 45.3916 39.27C45.3916 38.5006 45.0927 37.779 44.5514 37.2396L43.6931 36.3814C44.6742 34.7007 45.419 32.9043 45.9146 31.0231H47.1272C48.7113 31.0231 50 29.7356 50 28.1531V22.8465C50 21.2626 48.7113 19.9739 47.1272 19.9739ZM48.0469 28.1533C48.0469 28.6589 47.6343 29.0702 47.1272 29.0702H45.1479C44.6912 29.0702 44.2955 29.3867 44.1952 29.8323C43.701 32.0275 42.8396 34.1052 41.6351 36.0072C41.3906 36.3933 41.4464 36.8972 41.7695 37.2203L43.1715 38.6222C43.3437 38.7938 43.4384 39.0238 43.4384 39.2702C43.4384 39.5166 43.3436 39.7467 43.1701 39.9194L39.4181 43.6716C39.2465 43.8438 39.0164 43.9385 38.77 43.9385C38.5236 43.9385 38.2936 43.8437 38.1208 43.6702L36.7201 42.2695C36.3969 41.9463 35.893 41.8906 35.507 42.1351C33.6049 43.3396 31.5273 44.201 29.3321 44.6952C28.8865 44.7955 28.57 45.1912 28.57 45.6479V47.6272C28.57 48.1343 28.1587 48.5469 27.6531 48.5469H22.3465C21.8395 48.5469 21.4269 48.1343 21.4269 47.6272V45.6479C21.4269 45.1913 21.1104 44.7956 20.665 44.6953C18.4709 44.2008 16.3942 43.3394 14.4926 42.1351C14.3318 42.0332 14.1505 41.9835 13.9703 41.9835C13.7184 41.9835 13.4686 42.0808 13.2802 42.2688L11.8748 43.6715C11.7034 43.8435 11.474 43.9382 11.2287 43.9384C11.2284 43.9384 11.2281 43.9384 11.2278 43.9384C10.9815 43.9384 10.7505 43.8432 10.5775 43.6701L6.82676 39.9193C6.4748 39.5674 6.4748 38.9728 6.82607 38.6215L8.22949 37.2208C8.55303 36.8978 8.60938 36.3934 8.36465 36.007C7.15605 34.0986 6.29482 32.0214 5.80479 29.8331C5.70488 29.3871 5.30889 29.07 4.85176 29.07H2.87002C2.36445 29.07 1.95312 28.6587 1.95312 28.1531V22.8465C1.95312 22.3395 2.36445 21.9269 2.87002 21.9269H4.85205C5.30908 21.9269 5.70498 21.6099 5.80498 21.1639C6.29531 18.9769 7.15664 16.9006 8.36494 14.9926C8.60938 14.6065 8.55361 14.1026 8.23047 13.7795L6.82705 12.3761C6.46973 12.0188 6.47031 11.4356 6.82705 11.0775L10.5766 7.32793C10.9361 6.96992 11.5192 6.96934 11.8771 7.32734L13.2805 8.72803C13.6035 9.05039 14.1069 9.10586 14.4925 8.86201C16.3987 7.65586 18.4752 6.79541 20.6642 6.30459C21.1101 6.20469 21.4271 5.80869 21.4271 5.35166V3.37002C21.4271 2.86445 21.8397 2.45312 22.3468 2.45312H27.6534C28.159 2.45312 28.5703 2.86445 28.5703 3.37002V5.35205C28.5703 5.80918 28.8874 6.20508 29.3334 6.30508C31.5195 6.79463 33.5971 7.65508 35.5081 8.8627C35.8938 9.10635 36.3972 9.05039 36.7203 8.72764L38.121 7.32695C38.4729 6.975 39.0675 6.975 39.4195 7.32695L43.1703 11.0777C43.3436 11.2509 43.4389 11.4822 43.4386 11.7289C43.4384 11.9742 43.3436 12.2036 43.1696 12.377L41.7689 13.7804C41.4464 14.1036 41.3909 14.607 41.6352 14.9928C42.8395 16.8944 43.7008 18.9711 44.1954 21.1652C44.2957 21.6106 44.6914 21.927 45.148 21.927H47.1273C47.6344 21.927 48.047 22.3396 48.047 22.8467V28.1533H48.0469Z" fill="#209BD6"/>
<path d="M27.2561 9.02054C23.7491 8.5431 20.1159 9.21087 17.0271 10.9005C16.5539 11.1594 16.3801 11.7529 16.6389 12.2259C16.8978 12.6992 17.4915 12.8729 17.9643 12.6141C23.6391 9.50989 30.8003 10.54 35.3794 15.1192C38.1525 17.8922 39.6795 21.5786 39.6795 25.4994C39.6795 29.4202 38.1525 33.106 35.3793 35.8779C32.6077 38.6508 28.922 40.1778 25.0012 40.1778C21.0804 40.1778 17.3939 38.6506 14.6209 35.8777C10.0252 31.2822 9.00474 24.1027 12.1392 18.4185C12.3997 17.9461 12.2279 17.3522 11.7556 17.0917C11.2834 16.8313 10.6893 17.0031 10.4289 17.4753C8.72349 20.568 8.04488 24.2088 8.51792 27.7272C9.00669 31.3625 10.6396 34.6585 13.2399 37.2588C16.3818 40.4007 20.5587 42.131 25.0013 42.131C29.444 42.131 33.6203 40.4006 36.7605 37.2589C39.9025 34.1184 41.6329 29.9421 41.6329 25.4994C41.6329 21.057 39.9026 16.8799 36.7607 13.738C34.1676 11.1451 30.8811 9.5139 27.2561 9.02054Z" fill="#209BD6"/>
<path d="M13.9493 15.3884C14.1993 15.3884 14.4491 15.2929 14.6398 15.1023L14.6426 15.0996C15.0239 14.7182 15.0225 14.1012 14.6411 13.7199C14.2596 13.3386 13.64 13.3399 13.2587 13.7213C12.8773 14.1026 12.8773 14.721 13.2587 15.1024C13.4495 15.2929 13.6994 15.3884 13.9493 15.3884Z" fill="#209BD6"/>
<path d="M20.5532 33.7159C22.2586 35.6835 23.7125 36.64 24.9977 36.64C26.2845 36.64 27.7389 35.6835 29.4444 33.7159C30.6727 32.2987 31.7721 30.6371 32.3164 29.6201C34.0191 26.4476 34.6476 23.7426 34.5581 19.9726C34.5463 19.4755 34.1629 19.0667 33.6677 19.0229C31.1262 18.7987 28.0009 17.0942 25.7053 14.6805C25.521 14.4867 25.2652 14.377 24.9977 14.377C24.7303 14.377 24.4744 14.4867 24.29 14.6806C21.9947 17.0943 18.8694 18.7987 16.3279 19.0229C15.8324 19.0666 15.4488 19.476 15.4375 19.9732C15.3509 23.7431 15.9794 26.4477 17.6792 29.62C18.2262 30.6393 19.3268 32.3011 20.5532 33.7159ZM24.9976 16.73C27.2763 18.8729 30.0655 20.38 32.6128 20.8476C32.5908 23.8527 32.0151 26.0511 30.5948 28.6976C30.1174 29.5898 29.0918 31.1406 27.9684 32.4367C26.1588 34.5246 25.237 34.6869 24.9976 34.6869C24.7588 34.6869 23.8387 34.5246 22.0291 32.4367C20.9072 31.1422 19.8798 29.5904 19.4004 28.6971C17.9829 26.0517 17.4074 23.853 17.3834 20.8475C19.9304 20.3797 22.7192 18.8728 24.9976 16.73Z" fill="#209BD6"/>
<path d="M22.4884 26.4931L24.1437 27.7609C24.3203 27.8961 24.5292 27.9622 24.7371 27.9622C25.0043 27.9622 25.2696 27.8529 25.4616 27.6409L28.6256 24.1446C28.9874 23.7447 28.9566 23.1271 28.5567 22.7652C28.1567 22.4034 27.5393 22.434 27.1773 22.8341L24.617 25.6633L23.6758 24.9425C23.2479 24.6149 22.6347 24.6959 22.3066 25.124C21.9789 25.5522 22.0601 26.1652 22.4884 26.4931Z" fill="#209BD6"/>
</svg>
