<svg width="50" height="51" viewBox="0 0 50 51" fill="none" xmlns="http://www.w3.org/2000/svg">
<path d="M34.5719 16.6875H15.4218C14.8826 16.6875 14.4453 17.1247 14.4453 17.664V26.3618C14.4453 26.9012 14.8826 27.3384 15.4218 27.3384H34.5719C35.1112 27.3384 35.5484 26.9011 35.5484 26.3618V17.664C35.5485 17.1246 35.1113 16.6875 34.5719 16.6875ZM33.5954 25.3852H16.3985V18.6405H33.5954V25.3852Z" fill="#209BD6"/>
<path d="M46.2802 11.6018H45.0201V4.31236C45.0201 2.21236 43.3117 0.503906 41.2118 0.503906H29.3834C28.8441 0.503906 28.4069 0.94115 28.4069 1.48043C28.4069 2.01971 28.8441 2.45696 29.3834 2.45696H41.2118C42.2348 2.45696 43.0671 3.28926 43.0671 4.31236V34.3006C43.0671 42.1543 36.6791 48.5437 28.8271 48.5437H21.173C13.3195 48.5437 6.93029 42.1543 6.93029 34.3006V4.31236C6.93029 3.28926 7.76377 2.45696 8.78833 2.45696H20.6139C21.1532 2.45696 21.5905 2.01971 21.5905 1.48043C21.5905 0.94115 21.1532 0.503906 20.6139 0.503906H8.78833C6.68677 0.503906 4.97714 2.21246 4.97714 4.31236V11.6017H3.7198C1.66871 11.6018 0 13.2705 0 15.3216V23.8062C0 25.8559 1.66871 27.5233 3.7198 27.5233H4.97714V34.3006C4.97714 38.6101 6.66636 42.6727 9.73371 45.7401C12.8012 48.8076 16.8637 50.4969 21.173 50.4969H28.8271C33.1353 50.4969 37.197 48.8076 40.264 45.7401C43.3311 42.6726 45.0202 38.6099 45.0202 34.3006V27.5233H46.2803C48.3314 27.5233 50.0001 25.8558 50.0001 23.8062V15.3216C50 13.2705 48.3313 11.6018 46.2802 11.6018ZM3.7198 25.5703C2.74562 25.5703 1.95315 24.779 1.95315 23.8063V15.3216C1.95315 14.3474 2.74562 13.5548 3.7198 13.5548H4.97714V25.5702H3.7198V25.5703ZM48.047 23.8062C48.047 24.7789 47.2545 25.5702 46.2803 25.5702H45.0201V13.5548H46.2802C47.2544 13.5548 48.0469 14.3474 48.0469 15.3216V23.8062H48.047Z" fill="#209BD6"/>
<path d="M16.1797 37.456C16.1797 37.9954 16.6169 38.4325 17.1562 38.4325H17.1645C17.7038 38.4325 18.1368 37.9953 18.1368 37.456C18.1368 36.9167 17.6955 36.4795 17.1562 36.4795C16.6169 36.4794 16.1797 36.9166 16.1797 37.456Z" fill="#209BD6"/>
<path d="M21.4062 37.456C21.4062 37.9954 21.8435 38.4325 22.3828 38.4325H22.3883C22.9276 38.4325 23.3621 37.9953 23.3621 37.456C23.3621 36.9167 22.9222 36.4795 22.3828 36.4795C21.8435 36.4794 21.4062 36.9166 21.4062 37.456Z" fill="#209BD6"/>
<path d="M26.6328 37.456C26.6328 37.9954 27.0701 38.4325 27.6093 38.4325H27.6149C28.1542 38.4325 28.5887 37.9953 28.5887 37.456C28.5887 36.9167 28.1486 36.4795 27.6093 36.4795C27.0701 36.4795 26.6328 36.9166 26.6328 37.456Z" fill="#209BD6"/>
<path d="M31.8594 37.456C31.8594 37.9954 32.2966 38.4325 32.8359 38.4325H32.8415C33.3807 38.4325 33.8153 37.9953 33.8153 37.456C33.8153 36.9167 33.3752 36.4795 32.8359 36.4795C32.2966 36.4795 31.8594 36.9166 31.8594 37.456Z" fill="#209BD6"/>
<path d="M35.8061 7.54404H31.9334C30.6624 7.54404 29.6282 8.57818 29.6282 9.84939V12.1171H20.8076V9.84929C20.8076 8.57818 19.7735 7.54395 18.5023 7.54395H14.6268C13.3558 7.54395 12.3216 8.57808 12.3216 9.84929V12.1736C11.131 12.4241 10.2344 13.4824 10.2344 14.7463V29.2822C10.2344 30.7319 11.4138 31.9115 12.8636 31.9115H37.1347C38.5845 31.9115 39.764 30.732 39.764 29.2822V14.7463C39.764 13.6415 39.0788 12.6945 38.1114 12.3059V9.84929C38.1114 8.57818 37.0772 7.54404 35.8061 7.54404ZM31.5814 9.84929C31.5814 9.6584 31.7427 9.49709 31.9335 9.49709H35.8062C35.997 9.49709 36.1583 9.6584 36.1583 9.84929V12.117H31.5814V9.84929ZM14.6269 9.49709H18.5024C18.6933 9.49709 18.8546 9.6584 18.8546 9.84929V12.117H14.2748V9.84929C14.2748 9.6584 14.4361 9.49709 14.6269 9.49709ZM37.8109 29.2823C37.8109 29.6551 37.5076 29.9584 37.1348 29.9584H12.8637C12.4972 29.9584 12.1876 29.6488 12.1876 29.2823V14.7463C12.1876 14.3735 12.4909 14.0702 12.8637 14.0702H37.1348C37.5076 14.0702 37.8109 14.3735 37.8109 14.7463V29.2823Z" fill="#209BD6"/>
<path d="M25 2.45696H25.0056C25.5449 2.45696 25.9794 2.01971 25.9794 1.48043C25.9794 0.94115 25.5393 0.503906 25 0.503906C24.4606 0.503906 24.0234 0.941053 24.0234 1.48043C24.0234 2.01981 24.4607 2.45696 25 2.45696Z" fill="#209BD6"/>
</svg>
