<svg width="50" height="50" viewBox="0 0 50 50" fill="none" xmlns="http://www.w3.org/2000/svg">
<path d="M32.8913 25.7101L37.8518 20.7548C41.1319 21.9656 44.8792 21.1734 47.3669 18.6851C49.4713 16.5826 50.3967 13.5707 49.8424 10.6278C49.7581 10.1819 49.5015 8.82488 48.4006 8.52918C47.3201 8.23895 46.4863 9.20574 46.0856 9.67028C46.0525 9.70866 46.0253 9.74108 46.0085 9.75886L42.5955 13.1689C41.7852 13.9785 40.4851 14.038 39.6073 13.316C38.8853 12.4398 38.9448 11.1419 39.7546 10.3329L43.1631 6.92734C43.1854 6.90625 43.2178 6.879 43.2561 6.846C43.7212 6.44561 44.6888 5.61261 44.3989 4.53215C44.1035 3.43109 42.745 3.17464 42.2979 3.09017C39.3546 2.53676 36.341 3.46009 34.2357 5.56056C31.7454 8.04872 30.9522 11.7934 32.1635 15.0705L27.2025 20.0263L21.8204 14.649C20.7789 9.9237 24.303 8.12245 28.013 6.68516C28.4862 6.50186 28.8948 6.34356 29.2231 6.18711C29.5393 6.03633 29.7505 5.72784 29.7767 5.37853C29.8029 5.02922 29.6399 4.6926 29.3496 4.49651C27.6118 3.3221 25.411 2.48442 23.1526 2.13754C20.6328 1.75073 18.1182 1.97495 15.8807 2.78627C15.3737 2.97015 15.1117 3.53021 15.2956 4.03723C15.4793 4.54436 16.0395 4.80627 16.5465 4.62248C20.0265 3.36048 23.7826 3.91165 26.5425 5.16427C25.1354 5.7296 23.3498 6.54629 21.9641 7.85731C20.0197 9.69685 19.3143 12.0411 19.8633 14.8317L15.7526 18.9388C15.3142 18.8256 14.9634 18.7225 14.6658 18.6351C14.4763 18.5796 14.3118 18.5313 14.1639 18.4917C13.2947 18.2608 12.6716 18.2704 11.8653 18.9834C11.6511 19.1745 11.4107 19.4211 11.1064 19.7334C10.797 20.0509 10.4118 20.4462 9.90654 20.9356C9.71856 21.1177 9.61153 21.3677 9.60948 21.6294C9.60772 21.8547 9.68389 22.0724 9.82315 22.2466L7.70852 24.3594L1.99559 18.6542L4.11266 16.5416C4.49605 16.8492 5.05757 16.8254 5.41333 16.4701L6.78773 15.097C7.33831 14.5666 7.42161 14.0509 7.4887 13.6362C7.49729 13.583 7.50627 13.5274 7.51711 13.4668C7.69748 12.4533 8.14601 11.5282 8.74972 10.927L10.0203 9.65476C10.4015 9.27312 10.401 8.65486 10.0194 8.27362C9.6378 7.89257 9.01944 7.89315 8.63839 8.27459L7.36966 9.5447C6.16576 10.7437 5.74057 12.3021 5.59457 13.1226C5.58188 13.1935 5.57094 13.2604 5.56069 13.3243C5.51411 13.6124 5.51411 13.6124 5.43022 13.6925C5.42485 13.6977 5.41958 13.7028 5.4143 13.708L4.52535 14.5962C3.92604 14.4586 3.27028 14.6223 2.80437 15.0877L0.539546 17.3477C0.1916 17.6955 0 18.1594 0 18.6539C0 19.1485 0.1916 19.6125 0.539741 19.9603L6.40248 25.8149C6.76126 26.1734 7.23343 26.3529 7.70657 26.3529C8.17922 26.3529 8.65265 26.1737 9.01476 25.8149L11.2763 23.5554C11.6242 23.2077 11.8158 22.7443 11.8158 22.2506C11.8158 22.1112 11.8006 21.9741 11.7708 21.8415C12.058 21.555 12.298 21.3087 12.5052 21.0962C12.7828 20.8113 13.0021 20.5862 13.1623 20.4433C13.2569 20.3596 13.3089 20.3244 13.332 20.3106C13.3675 20.3127 13.4561 20.3243 13.6604 20.3785C13.793 20.414 13.9428 20.4581 14.1154 20.5089C14.472 20.6135 14.9439 20.7521 15.5568 20.9035L20.94 26.2819L16.9938 30.2241C13.7149 29.0164 9.96807 29.8095 7.47971 32.2956C5.37583 34.3947 4.45123 37.4058 5.0063 40.3498C5.09018 40.7962 5.34546 42.1549 6.44623 42.4514C7.52639 42.7421 8.35998 41.7755 8.76056 41.3111C8.79366 41.2727 8.82091 41.2403 8.83751 41.2226L12.2534 37.8099C13.0624 37.0017 14.3612 36.9434 15.2388 37.6654C15.961 38.5416 15.9026 39.8382 15.0944 40.6458L11.683 44.0542C11.6607 44.0753 11.6284 44.1025 11.5901 44.1354C11.1255 44.5358 10.1587 45.3688 10.4493 46.4487C10.7455 47.5495 12.1045 47.8047 12.5507 47.8884C13.1136 47.9943 13.679 48.0463 14.2401 48.0463C16.6135 48.0463 18.9096 47.1172 20.6102 45.4181C23.0996 42.9308 23.8927 39.1859 22.6823 35.9082L26.6288 31.9659L41.3054 46.6294C42.1681 47.4914 43.301 47.9222 44.4343 47.9222C45.5673 47.9222 46.7007 47.4911 47.5633 46.6294C48.3972 45.7962 48.8565 44.6851 48.8565 43.5006C48.8565 42.3162 48.3972 41.205 47.5633 40.3719L32.8913 25.7101ZM35.9644 38.532L39.4621 35.0373L41.2305 36.8044L37.7328 40.2989L35.9644 38.532ZM17.4347 20.0188L19.1347 18.3203L20.9332 16.5233L25.8206 21.4066L22.3219 24.9017L17.4347 20.0188ZM20.6437 36.0856C21.8752 38.7658 21.307 41.9611 19.2299 44.0364C17.5836 45.6813 15.2216 46.4035 12.9115 45.9689C12.7701 45.9424 12.6559 45.9148 12.5643 45.8887C12.6446 45.8097 12.745 45.7184 12.8651 45.6149C12.9424 45.5484 13.0033 45.4958 13.059 45.4402L16.4748 42.0273C18.0237 40.4797 18.1078 37.9768 16.6662 36.3292C16.6375 36.2964 16.6066 36.2655 16.5737 36.2367C14.9254 34.7972 12.4214 34.8811 10.873 36.428L7.45715 39.8408C7.4012 39.8966 7.34846 39.9579 7.28157 40.0353C7.17757 40.156 7.08567 40.2568 7.00647 40.3372C6.98021 40.2454 6.95257 40.1305 6.92581 39.9884C6.49046 37.6794 7.21321 35.3204 8.85978 33.6778C10.9371 31.6024 14.135 31.0335 16.8172 32.2624C17.188 32.4322 17.6255 32.3539 17.9141 32.0655L22.994 26.9909C23.0005 26.9848 23.0073 26.9795 23.0136 26.9731C23.0197 26.9671 23.0249 26.9604 23.0307 26.9542L27.8829 22.1071C27.8864 22.1037 27.8904 22.1007 27.8938 22.0972C27.8972 22.0938 27.8999 22.0901 27.9032 22.0867L34.0051 15.9912C34.2944 15.7023 34.3731 15.2637 34.2022 14.8923C32.9701 12.2129 33.5383 9.01795 35.6158 6.94238C37.2643 5.29767 39.6274 4.57512 41.9365 5.0092C42.0783 5.03595 42.1928 5.06379 42.2845 5.09006C42.2039 5.16945 42.1029 5.26134 41.9818 5.36544C41.9043 5.43224 41.843 5.48497 41.7871 5.54083L38.374 8.95086C36.8237 10.5001 36.7384 13.0041 38.1799 14.6518C38.2087 14.6846 38.2396 14.7155 38.2725 14.7443C39.9208 16.184 42.426 16.0986 43.9759 14.5502L47.3889 11.1402C47.4448 11.0843 47.4977 11.0231 47.5646 10.9456C47.6696 10.8238 47.7621 10.7223 47.842 10.6415C47.8685 10.7331 47.8962 10.8476 47.9231 10.9897C48.3577 13.2971 47.6337 15.6573 45.986 17.3035C43.9099 19.3801 40.7127 19.9478 38.0295 18.7162C37.6585 18.5458 37.2207 18.6243 36.932 18.9128L20.8409 34.9869C20.5518 35.2758 20.473 35.7142 20.6437 36.0856ZM31.5096 27.0903L38.0806 33.6568L34.5827 37.1516L28.0108 30.5854L31.5096 27.0903ZM46.1829 45.2477C45.2187 46.211 43.65 46.2108 42.6859 45.2477L39.1145 41.6793L42.6119 38.185L46.1828 41.7535C46.6475 42.2177 46.9034 42.8381 46.9034 43.5006C46.9034 44.1631 46.6476 44.7834 46.1829 45.2477Z" fill="#209BD6"/>
<path d="M12.4727 6.85709C12.7226 6.85709 12.9726 6.76168 13.1632 6.57105L13.166 6.56832C13.5473 6.18698 13.546 5.56999 13.1646 5.18865C12.7833 4.8074 12.1636 4.80857 11.7821 5.19001C11.4008 5.57136 11.4008 6.18971 11.7821 6.57115C11.9728 6.76177 12.2228 6.85709 12.4727 6.85709Z" fill="#0047AB"/>
</svg>
