<svg width="50" height="50" viewBox="0 0 50 50" fill="none" xmlns="http://www.w3.org/2000/svg">
<path d="M39.5925 39.8626C39.1672 39.5374 38.5593 39.619 38.2343 40.0441C37.9093 40.4692 37.9906 41.0773 38.4158 41.4023L40.0716 42.6678C40.2467 42.8016 40.4536 42.8669 40.6595 42.8669C40.9245 42.8669 41.1877 42.7586 41.3781 42.5484L44.543 39.0539C44.9021 38.6572 44.8719 38.0445 44.4752 37.6853C44.0787 37.3261 43.4658 37.3565 43.1066 37.753L40.5402 40.5869L39.5925 39.8626Z" fill="#209BD6"/>
<path d="M49.8804 34.6906C49.8693 34.1966 49.4883 33.7902 48.9961 33.7472C46.6912 33.5458 43.8548 31.9974 41.7697 29.8029C41.5868 29.6105 41.333 29.5015 41.0675 29.5014C41.0675 29.5014 41.0674 29.5014 41.0673 29.5014C40.802 29.5014 40.5482 29.6102 40.3653 29.8024C39.4294 30.7862 38.343 31.6395 37.222 32.3004C35.2549 30.1044 32.8337 28.4865 29.9961 27.4681C29.9713 27.4581 29.9463 27.4492 29.9208 27.4412C29.6998 27.363 29.4761 27.2883 29.2501 27.2171C31.6499 24.8237 33.2641 21.6784 33.2641 18.8568V17.3345C34.3986 16.8406 35.1941 15.7083 35.1941 14.3932C35.1941 13.0271 34.3343 11.8586 33.1277 11.3989C32.6297 6.56387 29.2232 2.49943 24.544 1.15476C24.4058 0.496185 23.8206 0 23.1216 0H19.6106C18.9364 0 18.3697 0.461982 18.2061 1.08568C15.9044 1.69949 13.8021 3.00967 12.2258 4.83124C10.6259 6.68014 9.63104 8.98908 9.37835 11.3994C8.17117 11.8594 7.31105 13.0276 7.31105 14.3933C7.31105 15.7089 8.1078 16.8414 9.24376 17.3351V18.8569C9.24376 21.6759 10.8583 24.8223 13.258 27.2174C13.0386 27.2864 12.8212 27.3586 12.6064 27.4344C12.5642 27.4464 12.5231 27.4612 12.4831 27.4787C9.30694 28.6245 6.65529 30.5211 4.57869 33.1402C2.58155 35.6592 1.16179 38.7699 0.358936 42.3867C0.0732011 43.6792 -0.141706 45.3035 0.739626 46.4009C1.60051 47.4729 3.14091 47.6102 4.38685 47.6102H10.7251C11.2602 47.6102 11.694 47.1764 11.694 46.6413C11.694 46.1063 11.2602 45.6724 10.7251 45.6724H4.38685C3.22772 45.6724 2.50898 45.5092 2.25056 45.1875C1.97684 44.8466 1.97704 44.045 2.25085 42.8057C3.25786 38.27 5.72008 32.7196 11.6525 29.9171C11.4701 33.1904 13.2437 35.33 14.371 36.688C14.5436 36.8959 14.7951 37.0222 15.065 37.0367C15.3346 37.0516 15.5983 36.9522 15.792 36.7638L21.2527 31.4534L26.716 36.764C26.8972 36.9402 27.1397 37.0381 27.3913 37.0381C27.4086 37.0381 27.426 37.0377 27.4435 37.0367C27.7134 37.0222 27.965 36.8955 28.1375 36.6873C29.2633 35.3282 31.0343 33.1873 30.8535 29.9209C32.5746 30.7373 34.0952 31.8292 35.4028 33.1894C34.622 33.4916 33.8542 33.6847 33.1383 33.7473C32.6464 33.7902 32.2656 34.1963 32.254 34.69C32.1729 38.1541 32.7503 40.636 34.3124 43.541C34.3256 43.5656 34.8535 44.5118 35.676 45.6726H19.497C18.9619 45.6726 18.5281 46.1065 18.5281 46.6415C18.5281 47.1766 18.9619 47.6104 19.497 47.6104H37.2148C38.383 48.9014 39.7607 50.0002 41.0672 50.0002C44.2193 50.0002 47.7872 43.6056 47.8215 43.5416C49.3811 40.6362 49.9583 38.1547 49.8804 34.6906ZM31.1499 11.1897H25.8153C24.8074 8.55685 24.6167 6.38578 24.5825 3.1987C28.0773 4.43476 30.6179 7.51845 31.1499 11.1897ZM20.0945 1.93785H22.6376C22.6437 5.68835 22.7387 8.22848 23.7541 11.1897H18.98C19.9936 8.22838 20.0885 5.68796 20.0945 1.93785ZM18.1506 3.12226C18.1186 6.35129 17.9334 8.53572 16.9193 11.1898H11.3575C11.9101 7.47078 14.5836 4.30347 18.1506 3.12226ZM10.5173 13.1275H16.9992C17.0563 13.1739 17.1115 13.1798 17.1578 13.1275H31.9906C32.6885 13.1275 33.2563 13.6952 33.2563 14.3933C33.2563 15.0927 32.6886 15.6618 31.9906 15.6618H10.5173C9.81795 15.6618 9.2489 15.0927 9.2489 14.3933C9.2489 13.6953 9.81785 13.1275 10.5173 13.1275ZM11.1816 18.8569V17.5995H31.3262V18.8569C31.3262 22.551 27.7474 27.1198 23.6674 28.6343C21.8822 29.2977 20.6148 29.2971 18.8253 28.6322C14.7534 27.1114 11.1816 22.5434 11.1816 18.8569ZM15.2028 34.6337C14.2 33.3245 13.2344 31.6056 13.6985 29.1105C14.1259 28.9725 14.5675 28.8467 15.0254 28.7353C16.0025 29.4522 17.0563 30.0401 18.1487 30.4481C18.5004 30.5787 18.8387 30.6864 19.1697 30.7759L15.2028 34.6337ZM27.3041 34.6331L23.3348 30.7747C23.6615 30.6861 23.9954 30.5798 24.3421 30.4509C25.44 30.0434 26.4989 29.4543 27.4805 28.7351C27.9328 28.8452 28.3751 28.9699 28.8067 29.1096C29.2719 31.6012 28.3066 33.3218 27.3041 34.6331ZM46.1138 42.6256C44.9679 44.7641 42.2845 48.0622 41.0672 48.0622C39.8498 48.0622 37.1664 44.7641 36.0198 42.6243C34.7394 40.2434 34.214 38.258 34.1855 35.5547C35.2308 35.3558 36.319 34.9657 37.389 34.421C37.4266 34.4046 37.4633 34.3853 37.4992 34.3638C38.7487 33.7143 39.9707 32.8548 41.0668 31.8333C43.1304 33.7585 45.6427 35.1163 47.9481 35.5548C47.9175 38.2585 47.3922 40.2443 46.1138 42.6256Z" fill="#209BD6"/>
<path d="M15.1095 45.6729C14.5744 45.6729 14.1406 46.1067 14.1406 46.6418C14.1406 47.1768 14.5744 47.6107 15.1095 47.6107H15.1151C15.6502 47.6107 16.0812 47.1768 16.0812 46.6418C16.0812 46.1067 15.6447 45.6729 15.1095 45.6729Z" fill="#209BD6"/>
</svg>
